HIERARCHY
ROOT Hips
{
	OFFSET -0.001795 -0.223333 0.028219
	CHANNELS 6 Xposition Yposition Zposition Zrotation Yrotation Xrotation 
	JOINT LeftUpLeg
	{
		OFFSET 0.069520 -0.091406 -0.006815
		CHANNELS 3 Zrotation Yrotation Xrotation
		JOINT LeftLeg
		{
			OFFSET 0.034277 -0.375199 -0.004496
			CHANNELS 3 Zrotation Yrotation Xrotation
			JOINT LeftFoot
			{
				OFFSET -0.013596 -0.397961 -0.043693
				CHANNELS 3 Zrotation Yrotation Xrotation
				JOINT LeftToe
				{
					OFFSET 0.026358 -0.055791 0.119288
					CHANNELS 3 Zrotation Yrotation Xrotation
					End Site
					{
						OFFSET 0.000000 0.000000 0.000000
					}
				}
			}
		}
	}
	JOINT RightUpLeg
	{
		OFFSET -0.067670 -0.090522 -0.004320
		CHANNELS 3 Zrotation Yrotation Xrotation
		JOINT RightLeg
		{
			OFFSET -0.038290 -0.382569 -0.008850
			CHANNELS 3 Zrotation Yrotation Xrotation
			JOINT RightFoot
			{
				OFFSET 0.015774 -0.398415 -0.042312
				CHANNELS 3 Zrotation Yrotation Xrotation
				JOINT RightToe
				{
					OFFSET -0.025372 -0.048144 0.123348
					CHANNELS 3 Zrotation Yrotation Xrotation
					End Site
					{
						OFFSET 0.000000 0.000000 0.000000
					}
				}
			}
		}
	}
	JOINT Spine
	{
		OFFSET -0.002533 0.108963 -0.026696
		CHANNELS 3 Zrotation Yrotation Xrotation
		JOINT Spine1
		{
			OFFSET 0.005487 0.135180 0.001092
			CHANNELS 3 Zrotation Yrotation Xrotation
			JOINT Spine2
			{
				OFFSET 0.001457 0.052922 0.025425
				CHANNELS 3 Zrotation Yrotation Xrotation
				JOINT Neck
				{
					OFFSET -0.002778 0.213870 -0.042857
					CHANNELS 3 Zrotation Yrotation Xrotation
					JOINT Head
					{
						OFFSET 0.005152 0.064970 0.051349
						CHANNELS 3 Zrotation Yrotation Xrotation
						End Site
						{
							OFFSET 0.000000 0.000000 0.000000
						}
					}
				}
				JOINT LeftShoulder
				{
					OFFSET 0.078845 0.121749 -0.034090
					CHANNELS 3 Zrotation Yrotation Xrotation
					JOINT LeftArm
					{
						OFFSET 0.090977 0.030469 -0.008868
						CHANNELS 3 Zrotation Yrotation Xrotation
						JOINT LeftForeArm
						{
							OFFSET 0.259612 -0.012772 -0.027456
							CHANNELS 3 Zrotation Yrotation Xrotation
							JOINT LeftHand
							{
								OFFSET 0.249234 0.008986 -0.001171
								CHANNELS 3 Zrotation Yrotation Xrotation
								End Site
								{
									OFFSET 0.000000 0.000000 0.000000
								}
							}
						}
					}
				}
				JOINT RightShoulder
				{
					OFFSET -0.081759 0.118833 -0.038615
					CHANNELS 3 Zrotation Yrotation Xrotation
					JOINT RightArm
					{
						OFFSET -0.096012 0.032551 -0.009143
						CHANNELS 3 Zrotation Yrotation Xrotation
						JOINT RightForeArm
						{
							OFFSET -0.253742 -0.013329 -0.021401
							CHANNELS 3 Zrotation Yrotation Xrotation
							JOINT RightHand
							{
								OFFSET -0.255298 0.007772 -0.005559
								CHANNELS 3 Zrotation Yrotation Xrotation
								End Site
								{
									OFFSET 0.000000 0.000000 0.000000
								}
							}
						}
					}
				}
			}
		}
	}
}
MOTION
Frames: 15
Frame Time: 0.050000
0.039125 1.975933 1.573482 0.080028 13.887617 0.480503 3.557875 0.083416 5.820729 -2.750211 0.164030 -11.800654 2.241670 11.434559 18.587385 0.000000 0.000000 0.000000 -1.589837 0.013990 -0.234297 3.502791 -0.490938 -1.304045 -1.801525 -6.447609 10.620591 0.000000 0.000000 0.000000 -0.213568 -0.456932 9.461706 3.786107 -0.035601 -25.371037 -1.909066 2.151518 28.248424 0.312192 3.152569 -25.744446 0.000000 0.000000 0.000000 -29.692774 -4.185051 -4.095385 -43.924622 -5.865926 -3.787777 -12.768431 -24.861737 3.458608 0.000000 0.000000 0.000000 25.260684 2.476309 3.987691 47.115327 14.741095 -2.407418 10.392993 29.726117 4.533277 0.000000 0.000000 0.000000 
0.036809 1.977623 1.572170 0.422693 14.533800 0.272899 3.500256 0.090701 6.137781 -2.551254 0.161709 -11.596656 2.018575 11.249240 18.727976 0.000000 0.000000 0.000000 -1.498684 -0.028260 0.175279 3.320733 -0.471486 -1.217930 -1.559041 -5.843314 10.344670 0.000000 0.000000 0.000000 -0.106754 -0.488956 9.775290 3.648454 0.006905 -25.284006 -1.977489 2.125379 28.259972 0.705633 2.967215 -25.460352 0.000000 0.000000 0.000000 -29.381768 -4.490042 -3.995424 -43.798385 -5.758660 -3.780289 -12.536768 -25.589009 3.485197 0.000000 0.000000 0.000000 25.359580 2.553360 4.184596 47.211318 15.735499 -2.074994 10.732893 29.323265 4.562193 0.000000 0.000000 0.000000 
0.034144 1.980512 1.570875 0.607660 14.917131 0.106652 3.626058 0.072773 6.104503 -2.616271 0.168440 -10.858108 2.259750 11.559900 18.537880 0.000000 0.000000 0.000000 -1.510167 -0.058712 0.461757 3.161834 -0.453188 -1.201006 -1.330757 -5.247860 9.790938 0.000000 0.000000 0.000000 0.005961 -0.524070 10.124012 3.459800 0.058858 -25.278196 -1.898461 2.454866 28.345527 0.953891 2.880120 -24.959760 0.000000 0.000000 0.000000 -29.721336 -5.114501 -3.901884 -43.249650 -5.755672 -3.640647 -12.426460 -25.307712 3.398368 0.000000 0.000000 0.000000 25.721156 2.818072 4.586181 46.767948 16.146258 -2.020578 10.985838 29.603893 4.687558 0.000000 0.000000 0.000000 
0.031192 1.984302 1.569555 0.955261 15.948715 0.096421 3.764816 0.040284 6.025319 -2.813704 0.158437 -10.285802 2.280308 11.532306 17.922396 0.000000 0.000000 0.000000 -1.983575 -0.073948 0.527838 3.438310 -0.499038 -1.308608 -1.117821 -4.670626 9.620686 0.000000 0.000000 0.000000 0.353146 -0.564255 10.152968 2.911669 0.206744 -25.138049 -2.036650 2.511069 28.462937 1.695417 2.547837 -24.835937 0.000000 0.000000 0.000000 -29.641742 -5.963014 -3.656606 -42.660187 -5.182167 -3.683477 -12.357544 -25.565500 3.380282 0.000000 0.000000 0.000000 26.455427 2.756198 4.896526 46.144690 16.847508 -1.908533 11.926853 29.264942 4.869459 0.000000 0.000000 0.000000 
0.028161 1.986920 1.568319 1.373371 17.017050 0.283167 3.681390 0.030513 6.012248 -3.288493 0.130874 -10.235872 2.128937 11.363688 17.649130 0.000000 0.000000 0.000000 -2.414518 -0.069150 0.355322 3.226737 -0.477266 -1.215892 -0.806555 -3.785424 8.929095 0.000000 0.000000 0.000000 0.354855 -0.557647 9.983358 2.714657 0.274883 -25.335848 -2.110958 2.591904 28.745528 1.892405 2.547457 -24.714191 0.000000 0.000000 0.000000 -29.643542 -6.447333 -3.704166 -42.685180 -4.750363 -3.735751 -12.514953 -25.038708 3.309046 0.000000 0.000000 0.000000 26.507971 2.562831 5.071412 46.231561 17.425144 -1.780795 12.348203 28.501842 4.844918 0.000000 0.000000 0.000000 
0.025150 1.989652 1.567043 1.741467 18.348674 0.535983 3.541507 0.016358 5.764587 -3.498359 0.101802 -10.174374 1.736039 10.955422 17.543841 0.000000 0.000000 0.000000 -2.568307 -0.082431 0.388402 3.431053 -0.516124 -1.088199 -0.910895 -3.731175 7.987728 0.000000 0.000000 0.000000 -0.163069 -0.511114 9.897214 2.906560 0.253323 -25.369019 -1.938401 2.268840 28.610902 2.447148 2.373360 -25.558956 0.000000 0.000000 0.000000 -29.206264 -6.012071 -4.154828 -42.894155 -3.911456 -3.978711 -13.094223 -24.936001 3.379969 0.000000 0.000000 0.000000 26.548056 2.443521 5.205265 45.838671 18.219144 -1.549957 12.745214 28.632275 4.991864 0.000000 0.000000 0.000000 
0.021954 1.990488 1.565764 1.742920 19.573626 0.627574 3.792651 -0.038553 5.474675 -3.465366 0.076117 -10.204367 1.475038 10.830963 17.825375 0.000000 0.000000 0.000000 -2.271479 -0.080956 0.347671 3.571142 -0.547180 -1.052529 -1.214854 -4.195369 7.338345 0.000000 0.000000 0.000000 -0.255142 -0.508274 9.862025 3.229211 0.200476 -25.496897 -1.854613 2.101032 28.619478 2.516778 2.433711 -25.580374 0.000000 0.000000 0.000000 -29.462761 -5.930484 -4.577144 -42.520143 -3.220729 -4.055256 -13.506912 -24.852683 3.423333 0.000000 0.000000 0.000000 26.409866 2.288747 5.311985 45.297755 18.778510 -1.419225 13.174222 28.572744 5.101154 0.000000 0.000000 0.000000 
0.018708 1.991073 1.564517 2.140574 20.753150 0.672463 3.862141 -0.063039 5.618494 -3.322749 0.052242 -10.351960 0.965922 10.377968 18.103511 0.000000 0.000000 0.000000 -2.736595 -0.132211 0.704520 3.737323 -0.583466 -0.839542 -1.345030 -4.231430 5.763487 0.000000 0.000000 0.000000 -0.354382 -0.524084 10.106777 3.224093 0.219487 -25.352577 -1.923747 1.874254 28.438130 3.042213 2.258741 -26.167015 0.000000 0.000000 0.000000 -29.162693 -6.045050 -4.686182 -42.418391 -2.760052 -4.118435 -14.084569 -24.688003 3.485209 0.000000 0.000000 0.000000 26.218014 2.264824 5.454005 44.834420 19.918365 -1.054161 14.079428 28.853632 5.428646 0.000000 0.000000 0.000000 
0.015348 1.991365 1.563122 2.335692 21.212513 1.055740 3.775753 -0.067354 5.341525 -3.220539 0.032450 -10.712457 0.773842 10.325386 18.546743 0.000000 0.000000 0.000000 -2.747616 -0.101945 0.353298 3.710711 -0.584397 -0.423485 -1.364691 -4.173092 5.067448 0.000000 0.000000 0.000000 -0.079466 -0.539295 9.929141 3.103485 0.253998 -25.209747 -1.917220 2.007645 28.309911 3.265461 2.205854 -26.249214 0.000000 0.000000 0.000000 -29.154638 -6.056801 -4.892578 -42.419086 -2.316081 -4.183774 -14.153956 -25.459037 3.577033 0.000000 0.000000 0.000000 25.797571 2.303129 5.551115 44.417525 20.759525 -0.755925 14.425105 29.486495 5.691060 0.000000 0.000000 0.000000 
0.011712 1.990432 1.561726 2.441465 21.773921 1.518573 3.938381 -0.109257 4.559985 -3.369795 0.035230 -10.159174 0.610388 10.048658 18.105457 0.000000 0.000000 0.000000 -2.826831 -0.071313 -0.030675 3.858415 -0.614094 -0.243515 -1.373240 -4.151132 5.045303 0.000000 0.000000 0.000000 0.397608 -0.571432 9.718424 2.785037 0.341160 -25.593994 -1.827387 2.312485 28.555383 3.883998 1.979062 -26.366793 0.000000 0.000000 0.000000 -29.019352 -6.557297 -4.866125 -42.698154 -1.858195 -4.293954 -14.415249 -26.385831 3.721876 0.000000 0.000000 0.000000 25.622926 2.139092 5.654302 44.059445 21.512086 -0.551917 15.534157 30.308060 6.237107 0.000000 0.000000 0.000000 
0.008121 1.987967 1.560336 2.645885 22.658590 1.834995 4.146720 -0.160784 3.675648 -4.073217 0.039431 -8.975948 0.638528 10.159839 18.009589 0.000000 0.000000 0.000000 -3.283576 -0.062676 -0.385013 3.979802 -0.649942 0.414224 -1.308515 -3.970903 5.351470 0.000000 0.000000 0.000000 0.347626 -0.598783 10.028811 2.868888 0.334822 -25.816102 -1.680175 2.310849 28.436439 3.677625 2.238215 -26.891598 0.000000 0.000000 0.000000 -28.395123 -6.868895 -4.777776 -43.306320 -2.018536 -4.277088 -14.486728 -26.545078 3.712226 0.000000 0.000000 0.000000 24.857451 2.397987 5.863960 43.785740 22.517274 -0.153905 17.248185 31.677832 7.147480 0.000000 0.000000 0.000000 
0.004540 1.984053 1.558862 3.237697 23.205105 2.530730 4.059175 -0.185979 2.516959 -4.669409 0.054407 -7.856344 0.643369 10.403789 18.479343 0.000000 0.000000 0.000000 -3.615095 -0.034757 -0.924885 3.846638 -0.644093 1.239928 -1.468253 -4.323403 5.782858 0.000000 0.000000 0.000000 -0.270573 -0.549930 10.141191 3.101570 0.295032 -25.892671 -1.446208 2.055629 28.358374 3.070811 2.631955 -27.280620 0.000000 0.000000 0.000000 -28.025302 -6.947221 -4.704888 -44.190520 -2.625516 -4.196080 -13.605181 -26.839110 3.534544 0.000000 0.000000 0.000000 24.204271 3.126802 6.252143 43.652420 23.987664 0.444433 18.243110 33.332165 7.945150 0.000000 0.000000 0.000000 
0.000575 1.980282 1.557451 3.411680 23.076388 2.790835 4.242204 -0.212010 2.130924 -4.949963 0.072574 -7.299369 0.582150 10.559811 19.211383 0.000000 0.000000 0.000000 -3.713530 -0.021963 -1.115317 3.882511 -0.653219 1.475663 -1.475248 -4.384055 6.410814 0.000000 0.000000 0.000000 -0.612005 -0.525771 10.292435 3.344437 0.244404 -26.202404 -1.273744 2.506400 28.795118 2.808022 2.892911 -27.762272 0.000000 0.000000 0.000000 -28.111992 -7.424361 -4.610451 -44.356623 -3.148640 -3.995830 -12.444908 -26.320464 3.192801 0.000000 0.000000 0.000000 24.687076 3.733057 6.910772 43.110468 25.105382 0.651891 17.957353 34.810270 8.303457 0.000000 0.000000 0.000000 
-0.003598 1.973819 1.555960 3.346672 23.022467 3.434948 4.894251 -0.299938 1.125951 -5.177162 0.107386 -6.253304 0.918687 11.183787 19.836361 0.000000 0.000000 0.000000 -3.566139 0.044860 -1.853745 3.838990 -0.662356 2.384744 -1.701883 -4.913200 6.985947 0.000000 0.000000 0.000000 -0.530171 -0.512344 10.017782 3.066462 0.310460 -26.119686 -0.919085 2.482898 28.986222 2.656585 2.987396 -27.862101 0.000000 0.000000 0.000000 -27.288167 -7.859096 -4.108015 -44.735302 -3.718090 -3.950778 -11.600011 -26.178029 2.987239 0.000000 0.000000 0.000000 24.815230 4.567098 7.512711 43.207055 26.481794 1.128175 17.846200 36.416130 8.761419 0.000000 0.000000 0.000000 
-0.007823 1.967030 1.554090 3.243924 23.718689 3.673750 5.441545 -0.379697 0.188613 -5.324514 0.126048 -5.305291 1.384469 12.024315 20.406143 0.000000 0.000000 0.000000 -3.271204 0.077564 -2.178635 3.733290 -0.661857 2.789281 -2.004056 -5.522697 7.159208 0.000000 0.000000 0.000000 -0.627539 -0.497384 9.885584 2.993860 0.340608 -26.268886 -0.554470 2.948085 29.569980 2.851466 3.088379 -28.251218 0.000000 0.000000 0.000000 -26.762476 -8.185268 -4.194322 -45.152933 -3.988419 -3.879007 -10.654065 -26.471458 2.742335 0.000000 0.000000 0.000000 24.469967 4.562457 7.790041 43.677358 27.540483 1.521059 17.391298 37.252236 8.956414 0.000000 0.000000 0.000000 
